<?xml version="1.0" standalone="no"?>
<!DOCTYPE svg PUBLIC "-//W3C//DTD SVG 20010904//EN"
 "http://www.w3.org/TR/2001/REC-SVG-20010904/DTD/svg10.dtd">
<svg version="1.0" xmlns="http://www.w3.org/2000/svg"
 width="1440.000000pt" height="1440.000000pt" viewBox="0 0 1440.000000 1440.000000"
 preserveAspectRatio="xMidYMid meet">
<metadata>
Created by potrace 1.15, written by Peter Selinger 2001-2017
</metadata>
<g transform="translate(0.000000,1440.000000) scale(0.100000,-0.100000)"
fill="#000000" stroke="none">
<path d="M8327 11443 c-14 -14 -6 -51 14 -64 13 -9 22 -29 26 -59 4 -25 13
-50 21 -56 9 -6 16 -32 18 -65 1 -30 6 -62 9 -71 6 -14 2 -18 -14 -18 -12 0
-21 -6 -21 -14 0 -25 -19 -29 -56 -11 -26 12 -39 14 -48 5 -11 -8 -21 -5 -42
12 -16 13 -45 31 -64 41 -19 10 -46 24 -60 32 -14 8 -37 15 -51 15 -14 0 -34
9 -44 20 -9 10 -27 18 -38 17 -13 -1 -22 4 -22 13 0 8 -10 19 -21 25 -12 6
-29 17 -38 24 -13 11 -22 11 -42 2 -22 -9 -30 -8 -57 13 -18 13 -51 27 -75 31
-24 4 -55 17 -69 29 -23 20 -32 22 -77 15 -39 -7 -54 -5 -67 7 -9 8 -23 14
-31 12 -7 -1 -28 4 -46 11 -25 11 -42 11 -68 3 -20 -6 -36 -6 -40 -1 -8 14
-34 11 -34 -4 0 -9 -20 -13 -67 -13 -157 -3 -153 -2 -153 -25 0 -18 -4 -20
-30 -14 -25 6 -31 3 -42 -19 -19 -42 -39 -25 -27 23 3 11 -6 14 -38 12 -22 -1
-51 4 -63 11 -18 11 -22 11 -31 -4 -6 -10 -17 -18 -24 -18 -8 0 -15 -5 -15
-11 0 -8 -20 -10 -60 -7 -41 3 -61 0 -64 -8 -3 -7 -18 -15 -34 -19 -17 -3 -38
-15 -48 -26 -9 -10 -30 -19 -45 -19 -27 0 -59 -22 -59 -41 0 -6 -10 -9 -22 -7
-17 2 -24 -3 -26 -20 -3 -18 -8 -21 -28 -16 -17 4 -26 1 -30 -10 -4 -11 -13
-14 -24 -11 -11 4 -24 -1 -32 -12 -7 -10 -25 -24 -40 -30 -16 -7 -28 -19 -28
-28 0 -11 -11 -15 -40 -15 -31 0 -43 -5 -56 -25 -9 -14 -25 -25 -35 -25 -11 0
-19 -7 -19 -15 0 -8 -9 -15 -19 -15 -11 0 -23 -4 -26 -10 -3 -5 -17 -10 -31
-10 -26 0 -33 -17 -9 -26 8 -4 15 -12 15 -19 0 -16 -34 -25 -51 -14 -23 14
-48 10 -70 -12 -15 -15 -24 -18 -33 -9 -10 8 -15 6 -19 -10 -3 -11 -12 -20
-20 -20 -8 0 -27 -6 -42 -14 -21 -11 -32 -12 -46 -3 -15 9 -23 7 -47 -16 -15
-15 -34 -27 -41 -27 -7 0 -30 -18 -52 -40 -22 -22 -48 -40 -59 -40 -10 0 -22
-5 -26 -11 -3 -6 -17 -8 -31 -4 -19 4 -31 -1 -50 -20 -16 -15 -37 -25 -54 -25
-23 0 -29 -4 -29 -22 0 -17 -3 -19 -12 -10 -17 17 -28 15 -28 -7 0 -10 -9 -21
-21 -24 -11 -3 -25 -19 -32 -36 -12 -32 -21 -38 -32 -21 -11 17 -35 11 -60
-16 l-25 -26 -57 23 c-32 12 -60 26 -64 31 -3 4 -21 3 -39 -2 -47 -14 -55 -13
-40 5 24 29 3 26 -44 -5 -33 -23 -46 -38 -46 -56 0 -14 -6 -24 -15 -24 -18 0
-37 -34 -30 -52 3 -8 -3 -23 -15 -33 -22 -20 -26 -55 -9 -72 13 -13 4 -33 -15
-33 -16 0 -35 -127 -37 -232 0 -15 -4 -30 -9 -33 -6 -4 -10 -17 -10 -30 0 -13
-7 -28 -16 -33 -13 -7 -14 -13 -6 -29 9 -15 6 -27 -10 -53 -14 -23 -18 -44
-15 -66 4 -22 1 -37 -9 -45 -12 -10 -14 -24 -9 -59 5 -36 3 -49 -9 -59 -9 -7
-14 -17 -11 -21 8 -12 -14 -199 -25 -220 -7 -13 -5 -24 10 -43 25 -32 25 -36
-1 -30 -18 5 -20 1 -20 -48 1 -93 0 -104 -12 -118 -9 -10 -7 -16 7 -26 16 -12
16 -15 2 -37 -15 -23 -12 -38 23 -107 13 -25 30 -23 37 3 4 19 13 26 30 26 16
0 24 6 24 18 0 9 10 23 22 31 19 12 23 11 33 -3 18 -24 23 -20 21 15 -1 26 5
34 31 48 21 11 31 23 30 36 -2 17 3 20 31 17 17 -1 32 2 32 6 0 10 45 32 65
32 26 0 16 -29 -12 -36 -53 -11 -57 -14 -45 -26 20 -20 14 -41 -10 -35 -14 4
-31 -2 -50 -19 -16 -13 -33 -24 -37 -24 -5 0 -12 -15 -17 -32 -5 -18 -19 -37
-29 -43 -44 -23 -75 -48 -75 -61 0 -8 -11 -19 -25 -24 -18 -7 -25 -17 -25 -35
0 -25 -58 -95 -79 -95 -11 0 -41 -45 -41 -63 0 -8 -7 -20 -15 -27 -8 -7 -15
-21 -15 -33 0 -11 -9 -35 -20 -53 -12 -18 -23 -41 -25 -51 -2 -10 -6 -26 -10
-35 -5 -12 -2 -20 9 -24 11 -4 14 -13 10 -30 -7 -28 40 -134 60 -134 8 0 23
-18 33 -39 18 -36 18 -41 5 -55 -12 -12 -13 -18 -3 -29 8 -10 8 -22 2 -39 -14
-38 -11 -100 9 -140 10 -21 16 -46 13 -57 -3 -10 3 -33 12 -51 9 -18 14 -41
12 -52 -7 -24 35 -128 56 -140 14 -7 14 -12 5 -28 -10 -16 -9 -23 10 -43 19
-20 21 -30 15 -72 -5 -41 -8 -45 -18 -31 -17 23 -56 21 -62 -4 -4 -15 -11 -18
-29 -14 -14 4 -24 2 -24 -4 0 -6 -3 -18 -6 -27 -5 -13 -2 -16 12 -13 15 3 23
-8 39 -57 16 -47 25 -61 43 -63 12 -2 22 -8 22 -13 0 -5 11 -14 25 -19 42 -16
51 -51 28 -108 -23 -54 -21 -133 3 -153 10 -8 11 -15 1 -29 -9 -15 -8 -23 6
-38 9 -10 17 -23 17 -28 0 -5 12 -26 26 -47 14 -21 23 -44 20 -52 -3 -8 4 -25
15 -38 10 -14 19 -29 19 -35 0 -17 37 -43 53 -36 24 9 27 28 16 94 -6 40 -6
67 0 79 8 14 6 23 -9 36 -13 12 -17 22 -11 29 6 7 6 31 0 61 -5 27 -7 56 -4
64 3 7 1 19 -3 25 -16 19 -22 115 -10 142 9 18 9 27 0 36 -7 7 -12 32 -12 58
0 25 -6 57 -14 72 -9 16 -10 30 -5 35 6 6 12 56 15 113 5 90 8 105 27 121 27
22 17 35 -34 44 -23 4 -39 3 -43 -4 -4 -6 -22 -11 -40 -11 -27 0 -37 7 -59 41
-31 46 -33 62 -13 78 8 7 24 31 36 54 12 23 28 46 36 50 8 4 14 13 15 20 0 7
13 22 29 35 23 18 33 21 49 13 28 -15 38 -14 43 7 3 10 23 23 48 30 38 12 45
11 53 -3 5 -10 15 -14 29 -9 18 5 19 3 13 -25 -4 -19 -2 -37 5 -46 6 -8 9 -31
6 -56 -3 -24 -1 -48 4 -55 7 -8 5 -15 -5 -24 -8 -7 -15 -18 -15 -25 0 -7 -10
-25 -22 -40 -21 -27 -21 -28 -3 -61 10 -19 21 -34 25 -34 8 0 34 -52 31 -63
-1 -5 7 -6 18 -2 14 4 23 0 31 -15 12 -23 30 -18 30 9 0 10 8 21 18 25 9 3 23
9 31 12 10 5 12 2 8 -10 -5 -13 8 -33 48 -71 30 -30 55 -61 55 -69 0 -9 9 -21
20 -28 25 -16 26 -35 3 -40 -16 -3 -15 -6 5 -23 28 -24 28 -34 -2 -77 -13 -20
-20 -41 -16 -47 4 -7 5 -23 2 -36 -3 -19 1 -27 22 -34 14 -6 31 -19 38 -31 7
-11 18 -20 25 -20 30 0 99 -104 87 -133 -2 -7 21 -31 51 -55 35 -28 55 -51 55
-64 0 -17 7 -13 40 23 28 31 39 39 40 27 0 -10 -4 -18 -10 -18 -15 0 -11 -52
5 -74 8 -11 15 -30 15 -42 0 -13 5 -26 11 -29 6 -4 8 -13 5 -20 -2 -7 2 -21 9
-32 11 -14 16 -16 26 -5 18 17 49 15 49 -3 0 -8 -9 -15 -19 -15 -19 0 -35 -23
-24 -34 12 -12 55 -6 70 10 23 23 40 2 27 -33 -8 -23 -15 -27 -37 -25 -35 4
-58 -38 -39 -69 9 -13 9 -25 3 -38 -7 -12 -7 -21 0 -28 7 -7 -3 -23 -32 -52
-31 -29 -38 -41 -26 -41 10 0 20 7 23 15 8 21 27 19 48 -4 22 -24 15 -37 -23
-44 -18 -4 -32 -14 -36 -27 -4 -11 -17 -28 -30 -36 -13 -9 -21 -22 -18 -29 2
-8 -4 -27 -15 -43 -17 -23 -20 -41 -18 -99 2 -38 7 -76 11 -83 6 -10 1 -12
-20 -8 -25 5 -27 4 -21 -23 3 -15 1 -31 -4 -34 -6 -4 -7 1 -3 11 4 12 3 15 -5
10 -16 -9 -15 -39 1 -55 10 -10 9 -15 -5 -25 -22 -16 -22 -25 -1 -48 14 -16
15 -20 1 -35 -9 -10 -18 -34 -21 -53 -4 -28 0 -39 19 -55 29 -24 46 -95 23
-95 -19 0 -69 -78 -69 -107 0 -13 7 -26 15 -29 21 -8 15 -55 -10 -76 -13 -12
-16 -20 -9 -25 6 -5 17 -19 24 -32 11 -22 10 -27 -9 -42 -22 -18 -29 -63 -11
-74 7 -4 7 -13 0 -26 -7 -13 -7 -25 -1 -38 8 -14 7 -22 -4 -31 -19 -16 -19
-40 -1 -40 20 0 30 -18 18 -33 -16 -20 -8 -79 17 -129 16 -33 21 -57 16 -77
-3 -17 -2 -32 4 -36 6 -3 11 -15 11 -26 0 -11 7 -27 15 -35 10 -10 12 -21 6
-31 -9 -17 -4 -51 12 -70 5 -7 6 -25 3 -39 -5 -18 -2 -32 10 -45 14 -15 14
-21 4 -34 -11 -13 -10 -19 6 -36 11 -12 14 -23 9 -27 -12 -8 -14 -92 -3 -92 4
0 8 -9 8 -21 0 -18 -4 -20 -27 -14 l-28 7 23 -25 c20 -22 21 -25 7 -31 -10 -4
-15 -12 -11 -21 20 -50 21 -48 -5 -35 -13 7 -50 15 -84 17 -33 2 -67 4 -75 5
-8 0 -23 -2 -32 -7 -13 -5 -20 -1 -26 16 -5 13 -18 23 -33 25 -13 2 -57 6 -96
10 -40 4 -73 11 -73 15 0 5 -13 9 -28 9 -15 0 -33 5 -38 10 -8 8 -19 7 -39 -2
-23 -10 -29 -10 -39 4 -11 14 -17 15 -70 1 -42 -11 -61 -12 -69 -4 -6 6 -26
11 -44 11 -18 0 -42 5 -52 12 -15 9 -26 9 -44 1 -17 -8 -43 -9 -83 -2 -33 5
-84 11 -114 13 -30 3 -75 10 -98 17 -43 12 -44 11 -68 -17 -26 -32 -30 -54
-13 -71 7 -7 7 -23 -2 -54 -18 -64 -27 -207 -15 -227 4 -7 5 -16 1 -21 -3 -5
6 -26 19 -45 20 -31 34 -82 41 -158 0 -9 7 -24 15 -33 8 -9 16 -43 18 -75 4
-49 1 -63 -17 -86 -11 -15 -21 -33 -21 -40 0 -7 -8 -17 -17 -23 -10 -5 -14
-13 -10 -17 4 -4 0 -16 -9 -26 -13 -13 -14 -21 -6 -31 9 -10 9 -16 0 -25 -12
-12 5 -42 26 -42 33 -1 38 -17 18 -59 -21 -42 -21 -101 0 -128 11 -14 1 -20
-38 -21 -17 0 -49 -8 -70 -17 -24 -10 -51 -14 -71 -10 -30 5 -33 4 -33 -20 0
-14 6 -25 13 -25 9 0 13 -17 13 -57 0 -39 7 -72 22 -100 12 -23 22 -49 22 -58
0 -9 12 -32 27 -51 22 -30 24 -37 12 -46 -11 -7 -11 -11 -1 -15 6 -2 12 -13
12 -23 0 -10 7 -20 15 -24 8 -3 15 -13 15 -22 0 -9 8 -23 18 -30 14 -10 15
-15 5 -25 -18 -18 -16 -65 3 -94 9 -14 13 -32 10 -42 -5 -11 3 -26 24 -45 22
-20 30 -34 25 -47 -3 -11 -1 -22 5 -26 8 -5 6 -14 -5 -31 -11 -17 -13 -30 -7
-41 8 -13 2 -24 -23 -47 -39 -37 -55 -106 -29 -127 13 -10 17 -10 24 1 4 7 6
19 3 27 -7 17 15 43 36 43 22 -1 61 -35 61 -54 0 -9 8 -16 20 -16 36 0 16 -34
-24 -41 -11 -2 -21 -9 -23 -16 -3 -7 3 -10 15 -7 10 3 24 -2 31 -10 8 -9 19
-16 25 -16 6 -1 24 -11 39 -24 l28 -23 -18 -33 c-10 -18 -28 -38 -38 -44 -11
-6 -22 -12 -24 -13 -2 -2 2 -9 8 -17 7 -8 12 -25 11 -38 -4 -48 0 -54 20 -28
15 20 21 23 31 13 18 -18 29 -16 29 3 0 9 -9 18 -20 21 -11 3 -17 9 -14 14 3
5 16 1 30 -8 21 -13 24 -21 18 -45 -5 -27 -4 -29 15 -23 13 4 21 2 21 -5 0 -6
12 -16 28 -22 26 -11 26 -12 5 -15 -24 -5 -30 -18 -13 -28 17 -11 11 -41 -13
-62 -29 -25 -74 -34 -90 -19 -19 19 -87 56 -101 56 -8 0 -19 7 -26 15 -7 8
-23 15 -36 15 -25 0 -32 18 -13 37 8 8 8 13 -1 18 -7 4 -14 -1 -17 -14 -6 -25
-18 -27 -27 -5 -4 10 -13 13 -25 9 -32 -10 -35 15 -5 46 26 28 27 31 12 40
-24 13 -23 29 2 29 11 0 24 8 27 18 4 9 11 20 17 24 15 10 -3 24 -40 31 -24 5
-36 1 -50 -14 -16 -18 -19 -18 -42 -3 -25 16 -26 16 -48 -11 -14 -18 -28 -26
-38 -22 -26 10 -66 -10 -66 -33 0 -11 -8 -24 -17 -27 -10 -4 -24 -15 -31 -25
-7 -10 -19 -18 -26 -18 -17 0 -56 -43 -56 -62 0 -9 -7 -19 -16 -22 -10 -4 -13
-13 -9 -25 3 -10 -1 -24 -10 -31 -20 -16 -19 -30 1 -30 12 0 15 -6 10 -23 -3
-12 -6 -27 -6 -34 0 -6 -10 -13 -22 -15 -15 -2 -23 -10 -23 -23 0 -17 7 -20
39 -20 48 0 59 -21 15 -27 -38 -6 -77 10 -85 35 -8 24 -31 21 -40 -5 -4 -13
-17 -35 -30 -50 -22 -27 -23 -61 -3 -74 5 -3 9 -12 9 -21 0 -9 8 -25 17 -36
17 -18 17 -19 0 -28 -9 -6 -17 -17 -17 -24 0 -8 -6 -15 -12 -15 -7 0 -23 -3
-35 -6 -17 -5 -23 -2 -23 9 0 9 -7 20 -17 25 -24 14 -9 41 27 48 16 4 27 10
24 15 -3 5 -15 7 -28 3 -14 -3 -27 1 -35 10 -17 21 -41 20 -41 0 0 -9 -9 -18
-20 -21 -25 -7 -25 -15 0 -31 31 -19 26 -44 -7 -36 -55 12 -61 15 -66 36 -6
20 -22 22 -77 7 -9 -3 -14 2 -11 11 8 34 7 85 -3 92 -6 4 -25 8 -42 8 -24 0
-40 9 -63 35 -17 19 -33 35 -37 35 -3 0 -17 -9 -31 -20 -14 -11 -35 -20 -46
-20 -11 0 -30 -11 -43 -25 -30 -33 -67 -34 -59 -2 5 20 0 24 -42 37 -26 8 -54
16 -60 18 -8 2 -13 -5 -13 -16 0 -12 -9 -22 -22 -25 -18 -5 -19 -8 -9 -21 14
-16 9 -46 -8 -46 -5 0 -11 8 -15 17 -3 10 -11 26 -18 36 -11 14 -10 19 2 27
13 8 13 12 -3 27 -17 17 -19 17 -31 1 -18 -25 -26 -22 -26 7 0 25 -23 35 -35
15 -10 -15 -25 -12 -25 6 0 9 -9 18 -20 21 -11 3 -20 11 -20 17 0 7 -11 23
-24 35 -20 19 -22 27 -15 59 4 20 6 40 3 44 -8 13 -24 9 -24 -7 0 -11 -8 -13
-30 -9 -25 5 -30 3 -30 -12 0 -15 -2 -16 -9 -5 -5 8 -11 9 -15 3 -3 -6 -2 -13
4 -17 5 -3 10 -14 10 -24 0 -15 -8 -19 -40 -19 -39 -1 -39 0 -33 31 6 34 42
94 83 139 17 19 31 26 46 22 16 -4 24 0 29 15 3 12 15 26 26 31 10 6 19 19 19
30 0 10 6 23 14 27 7 4 13 19 12 33 -1 17 6 28 21 35 13 5 27 22 32 37 9 25 6
32 -22 58 l-32 30 -18 -22 c-15 -18 -22 -20 -37 -10 -13 8 -21 8 -26 1 -3 -6
-17 -8 -30 -5 -13 4 -24 2 -24 -3 0 -5 -18 -27 -40 -49 -22 -21 -40 -46 -40
-54 0 -14 -41 -40 -66 -42 -20 -2 -75 -56 -85 -85 -6 -16 -21 -37 -35 -46 -13
-8 -24 -23 -24 -32 0 -8 -11 -26 -25 -39 -14 -13 -25 -32 -25 -44 0 -13 -9
-24 -25 -30 -18 -7 -25 -17 -25 -37 0 -54 -11 -73 -39 -73 -15 0 -36 -7 -47
-15 -10 -8 -27 -15 -37 -15 -13 0 -17 -7 -15 -28 3 -26 1 -27 -47 -28 -27 0
-60 -5 -72 -12 -30 -16 -41 -15 -52 7 -7 12 -7 30 -1 52 7 24 6 35 -3 41 -9 6
-9 12 1 28 17 28 15 32 -11 28 -24 -3 -57 21 -57 42 0 7 8 9 22 5 16 -6 20 -4
15 8 -3 8 -1 19 4 24 11 11 -28 93 -45 93 -6 0 -2 7 9 16 17 13 18 16 5 24
-10 6 -16 5 -19 -3 -9 -30 -35 -48 -62 -42 -21 5 -27 2 -32 -14 -7 -30 -27
-26 -27 4 0 14 -8 38 -18 53 -10 15 -23 36 -28 47 -6 11 -19 22 -29 23 -15 3
-17 -1 -11 -32 7 -38 -3 -46 -25 -20 -12 14 -14 14 -26 -2 -11 -15 -17 -16
-39 -5 -22 10 -30 9 -44 -4 -21 -19 -34 -19 -51 1 -11 14 -11 18 4 29 9 7 17
24 17 37 0 14 7 31 16 38 8 8 24 32 35 54 17 36 18 42 4 52 -17 13 -20 34 -4
34 5 0 16 15 24 33 7 17 23 38 34 44 12 8 18 19 15 28 -4 8 -2 15 3 15 5 0 28
18 52 40 23 22 47 40 53 40 6 0 16 7 22 15 7 9 31 16 61 18 28 2 57 7 67 11
11 5 25 0 42 -15 32 -28 112 -50 141 -40 11 4 31 4 45 0 39 -11 50 -10 50 5 0
8 13 17 29 21 16 3 35 13 42 21 6 8 24 14 40 14 16 0 50 11 77 24 102 51 148
69 164 67 11 -1 22 8 29 22 8 17 17 23 30 20 10 -3 32 5 48 16 17 12 44 27 61
32 16 6 30 15 30 20 0 14 42 49 84 71 32 17 50 19 99 14 39 -5 63 -3 73 5 11
9 21 9 44 -1 16 -7 36 -10 44 -7 19 7 166 -32 186 -49 20 -17 85 -8 121 17 14
10 31 36 39 58 7 23 17 41 21 41 4 0 24 16 43 36 24 24 41 34 52 30 12 -4 15
-2 10 9 -3 9 9 34 29 61 19 25 32 50 29 56 -4 5 -2 20 4 31 6 12 12 29 15 37
2 9 17 21 33 29 16 7 36 17 44 22 8 5 29 15 46 23 18 8 36 21 40 29 5 8 15 16
22 18 10 3 10 8 -1 23 -13 17 -15 17 -51 -8 -43 -29 -49 -30 -74 -17 -12 6
-30 3 -56 -10 -21 -10 -54 -21 -72 -25 -19 -3 -34 -10 -34 -15 0 -5 -14 -9
-32 -9 -17 0 -51 -12 -75 -26 -25 -14 -62 -27 -84 -29 -22 -1 -48 -9 -57 -18
-9 -8 -23 -12 -29 -10 -7 3 -25 -5 -39 -16 -15 -12 -41 -21 -59 -21 -18 0 -48
-11 -67 -24 -27 -18 -39 -21 -53 -13 -14 7 -21 6 -30 -7 -7 -9 -24 -16 -39
-16 -15 0 -56 -13 -91 -30 -35 -16 -70 -30 -78 -30 -20 0 -77 -30 -77 -40 0
-5 4 -11 9 -15 6 -3 5 -22 -3 -48 -11 -38 -15 -42 -45 -42 -25 0 -36 -5 -42
-22 -6 -15 -13 -20 -28 -16 -12 3 -28 0 -35 -7 -8 -6 -37 -13 -64 -14 -34 -2
-56 -9 -72 -24 -22 -20 -79 -26 -96 -9 -4 4 -15 1 -23 -7 -19 -17 -129 -37
-159 -29 -11 2 -33 -2 -49 -10 -18 -10 -35 -12 -43 -7 -18 11 -70 2 -91 -16
-25 -22 -77 -28 -105 -13 -23 12 -27 11 -35 -4 -6 -9 -19 -17 -29 -17 -10 0
-22 -5 -25 -11 -4 -5 -19 -7 -35 -4 -20 4 -35 0 -56 -18 -28 -24 -59 -33 -139
-42 -23 -3 -47 -13 -57 -25 -11 -13 -28 -20 -52 -20 -25 0 -36 -4 -36 -15 0
-9 -9 -15 -23 -15 -12 0 -40 -9 -62 -20 -21 -11 -55 -23 -74 -26 -23 -4 -50
-21 -74 -45 -21 -22 -42 -39 -47 -39 -5 0 -29 -13 -53 -30 -25 -16 -52 -30
-61 -30 -8 0 -22 -13 -31 -30 -17 -33 -50 -55 -66 -44 -6 4 -14 3 -18 -2 -17
-25 -70 -52 -90 -47 -15 4 -21 1 -21 -12 0 -11 -5 -15 -15 -11 -9 3 -23 2 -33
-3 -58 -31 -95 -42 -122 -36 -23 5 -30 3 -30 -9 0 -10 -9 -16 -24 -16 -13 0
-27 -7 -30 -16 -4 -11 -17 -15 -44 -13 -53 4 -121 -29 -122 -59 0 -19 -4 -21
-25 -16 -22 5 -25 3 -25 -20 0 -14 -4 -26 -9 -26 -5 0 -25 -16 -44 -35 -19
-19 -43 -35 -52 -35 -20 0 -15 -20 9 -34 13 -9 20 -7 31 8 12 15 17 17 29 7
11 -10 19 -7 40 15 20 23 27 25 40 15 12 -10 20 -9 43 3 33 17 115 15 121 -2
2 -7 13 -10 27 -6 25 6 85 -14 85 -29 0 -4 13 -20 30 -35 l29 -27 -22 -40
c-13 -23 -39 -49 -60 -60 -33 -17 -37 -23 -31 -47 5 -28 -8 -39 -21 -18 -4 6
-15 8 -25 5 -10 -3 -21 -1 -25 5 -5 7 -20 9 -41 5 -19 -3 -40 -2 -47 2 -6 4
-41 8 -77 8 -58 0 -66 2 -75 23 -5 12 -18 25 -27 28 -22 7 -43 43 -40 66 3 13
-4 16 -31 15 -44 -3 -140 -90 -131 -119 3 -10 0 -18 -6 -18 -22 0 -72 -62 -66
-82 2 -11 -1 -21 -9 -24 -7 -3 -15 -18 -19 -35 -3 -17 -12 -29 -21 -29 -13 0
-15 -78 -15 -685 l0 -685 7159 0 c7150 0 7159 0 7164 20 4 15 0 20 -14 20 -10
0 -19 5 -19 12 0 6 -7 19 -16 29 -13 14 -13 20 -2 39 15 24 7 32 -72 80 -36
22 -41 29 -36 52 5 26 -18 88 -34 88 -4 0 -15 17 -23 38 -8 21 -22 44 -31 51
-9 8 -16 22 -16 33 0 10 -7 21 -15 24 -8 4 -15 12 -15 19 0 7 -11 20 -25 29
-14 9 -34 34 -45 55 -11 22 -30 47 -42 55 -13 10 -22 27 -23 43 0 22 -6 29
-28 33 -30 5 -57 46 -57 85 0 18 4 22 19 18 10 -3 22 0 25 6 12 19 51 12 72
-12 11 -12 28 -38 38 -58 25 -48 36 -61 69 -82 17 -11 27 -26 27 -42 0 -14 4
-25 9 -25 5 0 20 -21 33 -47 13 -27 29 -52 35 -56 7 -4 13 -24 13 -42 0 -24 5
-35 14 -35 8 0 18 -10 22 -22 3 -13 13 -31 21 -40 11 -12 14 -28 9 -49 -5 -26
-3 -30 11 -25 19 8 33 -9 33 -41 0 -12 14 -38 31 -58 26 -29 29 -38 18 -51
-10 -13 -9 -16 9 -21 15 -3 22 -13 22 -28 0 -18 4 -22 20 -18 23 6 25 0 8 -27
-11 -17 -10 -22 2 -30 8 -5 18 -10 23 -10 4 0 7 58 7 130 0 94 -3 130 -12 130
-9 0 -9 3 0 12 8 8 12 54 12 143 l0 131 -76 74 c-41 41 -101 113 -131 160 -31
47 -89 119 -128 160 -40 41 -102 120 -138 175 -85 127 -150 200 -169 189 -7
-5 -20 -8 -28 -6 -8 1 -26 -7 -40 -17 l-25 -20 26 -28 c15 -15 32 -38 38 -50
6 -13 20 -23 31 -23 25 0 35 -17 20 -35 -17 -21 4 -55 30 -48 16 4 20 0 20
-18 0 -13 7 -37 15 -53 23 -44 6 -52 -29 -14 -17 20 -41 40 -53 47 -13 6 -23
18 -23 26 0 8 -9 15 -20 15 -11 0 -20 5 -20 10 0 6 -11 15 -25 20 -14 5 -25
14 -25 20 0 5 -9 10 -20 10 -11 0 -20 5 -20 10 0 6 -11 15 -25 20 -14 5 -25
17 -25 25 0 10 -7 15 -18 13 -11 -2 -25 2 -33 9 -8 6 -25 13 -39 15 -17 2 -26
10 -28 25 -2 15 -16 28 -40 39 -20 9 -47 28 -59 42 -16 19 -33 26 -60 28 -46
2 -95 23 -175 76 -15 10 -34 18 -41 18 -8 0 -25 8 -38 19 -21 17 -25 17 -46 4
-21 -14 -25 -14 -42 1 -9 9 -25 16 -34 16 -9 0 -19 5 -23 11 -3 6 -15 9 -25 6
-12 -3 -23 2 -30 14 -6 13 -17 18 -32 15 -12 -3 -48 -8 -79 -11 -54 -6 -58 -5
-84 24 -20 23 -36 31 -61 31 -20 0 -36 6 -39 14 -10 27 -34 27 -46 0 -10 -21
-16 -24 -40 -18 -20 4 -35 1 -48 -11 -12 -11 -26 -14 -40 -10 -12 4 -28 1 -37
-6 -12 -11 -17 -11 -27 3 -6 8 -20 17 -31 19 -12 3 -21 14 -23 27 -4 24 -32
31 -32 8 0 -12 -5 -12 -31 1 -18 9 -40 24 -50 34 -21 21 -40 24 -55 9 -8 -8
-15 -6 -24 5 -12 14 -15 14 -31 -1 -16 -14 -19 -14 -38 5 -18 18 -32 21 -79
19 -55 -2 -82 7 -124 41 -16 12 -21 12 -38 -4 -19 -17 -21 -17 -65 24 -24 22
-51 41 -60 41 -8 0 -15 7 -15 15 0 8 -9 15 -19 15 -11 0 -21 9 -25 23 -5 20
-71 57 -102 57 -6 0 -16 11 -22 24 -13 30 -48 51 -57 35 -8 -12 -33 9 -77 64
-23 29 -28 41 -19 50 16 16 -34 66 -59 60 -13 -4 -19 1 -22 19 -2 15 -13 26
-34 33 -17 6 -29 15 -27 22 2 6 -1 14 -6 18 -6 3 -11 15 -11 25 0 10 -14 29
-31 42 -51 39 -91 80 -158 165 -20 25 -45 45 -63 48 -16 4 -36 18 -44 31 -9
13 -23 24 -30 24 -8 0 -14 5 -14 10 0 6 12 10 26 10 31 0 28 24 -5 28 -12 2
-26 14 -31 27 -5 13 -18 26 -29 30 -13 4 -21 15 -21 28 0 13 -6 31 -14 42 -22
33 -30 94 -12 101 12 5 13 11 6 24 -7 13 -7 21 0 25 6 4 10 22 8 40 -1 18 3
39 9 47 6 7 14 33 18 58 4 25 11 50 14 55 4 6 18 42 31 80 12 39 29 77 36 86
8 8 14 21 14 28 0 6 7 14 16 18 12 4 14 14 10 35 -5 24 1 38 29 72 39 48 38
61 -9 171 -14 33 -29 77 -32 98 -7 38 -27 57 -62 57 -11 0 -23 7 -26 16 -5 12
-14 15 -37 10 -19 -4 -38 0 -53 9 -12 8 -25 12 -29 9 -10 -10 -81 19 -110 46
-16 14 -36 24 -45 23 -21 -3 -47 32 -57 75 l-7 33 43 -7 42 -7 -7 39 c-9 50
-31 67 -77 60 -28 -5 -40 -1 -54 14 -10 11 -24 20 -31 20 -7 0 -16 10 -20 23
-3 12 -12 29 -19 37 -7 8 -15 35 -19 60 -9 56 -19 68 -65 76 -47 8 -81 30 -81
52 0 10 -7 28 -16 40 -12 18 -24 23 -50 20 -18 -1 -39 3 -46 10 -6 6 -22 12
-34 12 -36 0 -54 11 -54 31 0 14 -7 19 -25 19 -14 0 -29 8 -35 20 -6 11 -16
17 -25 14 -8 -4 -15 -1 -15 5 0 6 -11 16 -25 21 -14 5 -25 14 -25 19 0 5 -15
14 -32 21 -18 6 -46 19 -61 27 -16 8 -40 13 -53 10 -20 -3 -27 1 -34 19 -6 14
-18 24 -29 24 -10 0 -24 6 -30 14 -6 7 -22 11 -35 9 -17 -4 -25 0 -29 16 -3
12 -13 21 -25 21 -11 0 -25 7 -32 15 -7 8 -30 18 -51 21 -21 4 -44 13 -50 20
-6 8 -15 11 -20 8 -5 -3 -32 8 -59 25 -28 17 -54 31 -58 31 -4 0 -18 9 -32 19
-29 23 -60 12 -60 -20 0 -11 -6 -22 -14 -25 -25 -10 -49 -55 -37 -67 16 -16
13 -57 -4 -63 -8 -4 -22 -1 -30 6 -13 10 -19 9 -35 -5 -18 -16 -20 -16 -26 -2
-3 9 -3 20 0 26 4 5 2 12 -4 16 -5 3 -10 17 -10 30 0 13 -5 27 -10 30 -6 4 -8
16 -5 27 4 12 0 27 -10 38 -15 17 -15 20 0 50 11 21 13 35 7 43 -6 7 -7 29 -2
54 5 31 3 48 -6 60 -7 10 -13 32 -14 48 0 23 7 34 31 48 28 15 31 21 25 48 -3
18 -6 48 -6 69 0 21 -8 46 -18 58 -12 14 -23 53 -31 116 l-13 96 23 19 c19 16
22 22 12 32 -7 7 -13 37 -13 65 0 29 -4 56 -10 59 -16 10 -12 25 6 25 12 0 15
6 10 24 -4 15 -1 26 6 28 7 3 4 15 -11 35 -13 17 -20 36 -17 42 4 6 -2 24 -13
40 -12 16 -21 33 -21 39 0 13 -30 71 -40 77 -5 3 -14 39 -21 80 -9 60 -16 76
-32 81 -11 3 -23 1 -27 -6 -10 -16 -33 -2 -26 16 3 8 1 14 -3 14 -11 0 -31 55
-31 82 0 11 9 22 20 25 19 5 27 34 21 73 -2 8 -3 26 -3 39 0 15 -7 25 -19 28
-24 7 -25 20 -2 25 14 3 17 12 14 53 -1 28 -9 60 -16 72 -12 18 -12 23 0 33 9
8 13 21 9 35 -3 13 -1 26 5 29 6 4 11 20 11 36 0 16 5 32 10 35 6 3 10 13 10
22 0 9 8 25 17 35 14 15 15 21 4 27 -10 7 -10 15 4 40 14 27 21 32 48 29 28
-3 33 1 43 32 8 23 19 36 33 38 11 2 21 -1 21 -7 0 -17 18 -13 40 9 11 11 32
20 46 20 14 0 34 5 45 10 21 12 26 42 7 39 -27 -3 -38 2 -38 16 0 8 7 15 16
15 22 0 12 23 -15 36 l-23 12 31 23 c32 23 44 66 16 56 -42 -17 -17 46 39 98
20 18 36 41 36 52 0 10 5 24 11 30 13 13 4 33 -16 33 -16 0 -15 65 2 96 7 12
10 24 7 27 -4 3 10 23 30 44 20 21 36 48 36 60 0 39 18 73 40 73 11 0 28 9 37
20 26 29 47 24 66 -15 9 -19 21 -35 26 -35 15 0 61 60 61 80 0 10 9 22 20 25
26 8 25 23 -2 53 -24 25 -33 79 -17 99 7 7 3 18 -12 32 -21 19 -21 21 -5 46 9
14 16 36 14 48 -2 17 3 23 20 25 20 3 23 8 18 28 -8 29 -1 30 42 4 22 -14 38
-18 45 -11 7 5 30 9 52 9 22 1 52 4 67 8 21 5 29 2 34 -10 3 -9 11 -16 18 -16
18 -1 56 -37 56 -54 0 -9 4 -24 9 -34 27 -53 32 -72 26 -91 -8 -27 -74 -61
-119 -61 -19 0 -38 -4 -41 -10 -3 -5 -15 -10 -26 -10 -10 0 -19 -7 -19 -15 0
-9 -6 -18 -14 -21 -22 -8 -13 -77 13 -103 17 -17 21 -29 16 -53 -8 -36 18 -92
51 -107 29 -13 69 5 84 37 7 15 16 22 26 18 9 -3 17 1 21 12 13 35 73 78 73
52 0 -5 6 -10 14 -10 15 0 29 27 21 40 -3 5 -1 11 5 15 5 3 10 28 10 54 0 26
5 52 10 57 8 8 6 15 -5 24 -19 16 -19 36 0 44 12 4 13 16 8 58 -3 29 -6 71 -5
92 1 22 -3 45 -9 52 -6 7 -8 18 -4 24 8 13 -15 212 -27 227 -5 7 -7 17 -4 22
4 6 1 20 -6 31 -9 15 -10 23 -2 28 13 9 10 126 -5 165 -6 16 -11 43 -11 61 0
18 -3 36 -7 40 -4 3 -12 23 -19 42 -11 33 -11 37 7 41 21 6 25 23 7 41 -9 9
-9 18 0 36 8 17 8 27 1 32 -6 3 -8 21 -4 43 4 23 0 50 -10 73 -16 41 -20 98
-6 98 15 0 22 32 10 46 -6 7 -8 17 -5 22 2 4 1 26 -4 47 -5 22 -5 46 0 55 6
10 5 21 -1 27 -6 6 -6 26 1 57 7 33 7 53 -1 67 -8 16 -7 25 6 39 18 20 13 40
-9 40 -10 0 -12 13 -10 45 2 24 -1 47 -6 50 -6 4 -8 10 -6 14 3 4 -2 33 -10
65 -8 31 -12 66 -9 77 5 13 1 25 -10 33 -12 9 -18 29 -19 67 -1 30 -6 61 -11
69 -6 8 -11 33 -12 55 -5 90 -16 141 -35 162 -16 17 -18 25 -8 42 9 17 8 29
-5 53 -8 17 -13 39 -10 49 4 11 -1 18 -15 22 -14 4 -20 13 -20 35 0 17 -4 34
-10 37 -5 3 -10 24 -10 46 0 28 -4 39 -15 39 -8 0 -15 7 -15 16 0 8 -5 24 -10
35 -9 15 -15 17 -30 9 -18 -10 -20 -7 -20 20 0 27 -2 30 -19 20 -33 -17 -51
-12 -51 14 0 15 -7 26 -20 29 -12 3 -20 14 -20 26 0 19 -78 132 -101 146 -5 4
-9 17 -9 29 0 13 -7 29 -15 36 -8 7 -15 18 -15 24 0 6 -5 28 -11 49 -14 51
-141 177 -179 177 -6 0 -32 16 -57 35 -25 19 -51 35 -58 35 -6 0 -20 9 -31 21
-24 27 -67 49 -94 49 -11 0 -20 4 -20 10 0 12 -77 50 -101 50 -9 0 -19 7 -23
15 -3 8 -12 15 -19 15 -8 0 -20 7 -27 15 -8 9 -21 13 -35 9 -14 -3 -26 0 -32
8 -14 22 -51 39 -59 27 -4 -7 -18 1 -38 19 -33 32 -59 40 -90 27 -13 -6 -23
-3 -31 8 -13 19 -18 20 -28 10z m-1076 -213 c32 -33 66 -60 74 -60 9 0 15 -10
15 -25 0 -14 5 -25 10 -25 6 0 18 -8 29 -19 10 -10 37 -29 60 -43 23 -14 62
-49 88 -79 25 -30 60 -64 77 -77 17 -12 33 -28 36 -35 8 -21 93 -94 118 -101
12 -4 22 -14 22 -22 0 -8 11 -19 24 -24 13 -5 27 -17 30 -28 8 -25 74 -96 104
-111 12 -6 22 -17 22 -23 0 -6 15 -29 33 -52 19 -23 39 -51 46 -63 8 -16 21
-23 41 -23 17 0 30 -5 30 -10 0 -14 -29 -70 -36 -70 -2 0 -18 10 -34 22 -29
21 -31 21 -43 4 -11 -16 -17 -16 -34 -6 -13 9 -32 10 -59 5 -21 -5 -43 -7 -49
-6 -21 5 -85 -23 -99 -44 -11 -17 -25 -22 -71 -23 -32 -1 -63 -6 -71 -13 -7
-6 -22 -8 -32 -5 -11 4 -24 0 -31 -8 -7 -8 -18 -13 -26 -10 -7 3 -16 1 -19 -5
-4 -5 -22 -7 -40 -4 -26 4 -39 0 -56 -17 -20 -20 -29 -22 -77 -16 -58 7 -87
-3 -114 -36 -14 -18 -18 -19 -38 -7 -20 12 -24 12 -37 -6 -13 -17 -18 -18 -60
-7 -25 7 -49 10 -54 7 -4 -3 -11 7 -14 21 -10 37 18 78 48 70 22 -5 118 33
130 53 4 5 13 8 21 4 9 -3 21 0 29 6 8 7 43 13 79 14 36 2 72 9 81 16 8 7 21
11 28 8 7 -2 22 0 33 6 11 6 35 11 54 13 39 3 54 15 46 36 -8 20 -36 32 -125
53 -41 9 -85 21 -97 25 -12 5 -25 5 -28 1 -2 -5 -24 -12 -49 -15 -24 -4 -61
-16 -82 -26 -21 -11 -47 -20 -58 -20 -11 0 -28 -7 -38 -16 -9 -9 -36 -18 -59
-20 -22 -2 -49 -9 -59 -14 -10 -6 -30 -10 -44 -10 -14 0 -40 -13 -59 -30 -27
-23 -36 -27 -46 -17 -10 9 -16 7 -28 -10 -9 -13 -22 -23 -31 -23 -24 0 -122
-33 -122 -41 0 -4 -12 -1 -27 7 -34 17 -90 18 -96 2 -4 -10 -8 -9 -16 2 -14
20 -14 53 0 45 14 -9 66 13 73 31 3 8 12 14 20 14 9 0 20 9 25 19 8 13 27 21
63 26 29 4 61 14 70 22 10 9 24 13 32 10 9 -4 18 -2 21 3 4 6 15 10 26 10 10
0 27 9 36 20 10 11 28 20 41 20 12 0 25 7 29 16 4 11 13 14 30 9 23 -5 66 12
105 44 10 8 27 11 42 7 31 -8 126 33 126 54 0 31 -121 72 -195 67 -22 -2 -53
-10 -70 -20 -34 -18 -158 -57 -185 -57 -9 0 -28 -9 -42 -19 -14 -11 -45 -28
-69 -37 -24 -10 -60 -28 -79 -41 -19 -13 -47 -23 -62 -23 -15 0 -35 -9 -45
-19 -10 -11 -43 -31 -73 -46 -30 -14 -62 -30 -70 -35 -8 -5 -42 -22 -76 -38
-57 -28 -154 -111 -154 -132 0 -6 -11 -10 -24 -10 -13 0 -26 -7 -30 -15 -3 -8
-12 -15 -21 -15 -11 0 -14 6 -9 25 3 14 1 32 -6 39 -9 12 -7 17 9 26 12 6 21
17 21 25 0 7 10 15 22 17 14 2 29 16 38 33 19 39 60 85 76 85 6 0 17 14 24 30
7 17 21 35 31 41 11 5 19 16 19 24 0 14 42 65 53 65 4 0 64 57 134 126 70 69
145 137 165 151 21 14 40 34 43 44 4 11 14 19 23 19 10 0 29 12 43 28 14 15
42 38 62 52 20 14 39 33 42 43 4 9 11 17 16 17 5 0 29 19 53 43 88 86 116 108
127 102 6 -4 26 8 45 26 29 28 76 53 107 58 5 0 35 -26 68 -59z m316 -4230
c-4 -15 0 -20 14 -20 14 0 21 -9 26 -31 3 -18 14 -34 27 -39 17 -7 18 -9 4 -9
-22 -1 -22 -11 -3 -58 8 -20 13 -38 11 -40 -2 -3 -29 -2 -60 2 l-56 7 0 52 c0
29 -5 57 -11 63 -8 8 -8 13 0 17 6 4 11 18 11 32 0 15 6 24 15 24 8 0 15 5 15
10 0 6 3 10 6 10 4 0 4 -9 1 -20z m-2866 -3745 c6 -59 -21 -110 -53 -102 -10
3 -36 -3 -58 -14 -21 -10 -50 -19 -63 -19 -14 0 -30 -7 -37 -15 -17 -21 -26
-9 -35 45 -7 38 -6 43 7 32 23 -18 28 -4 21 56 l-6 54 54 -3 c39 -3 61 1 78
13 23 16 25 16 57 -10 19 -15 34 -31 35 -37z m6137 -1261 c23 -8 49 -14 56
-14 7 0 21 -9 31 -20 10 -11 21 -17 26 -14 12 7 90 -16 110 -33 8 -7 27 -13
42 -13 14 0 29 -5 33 -11 3 -6 14 -9 24 -6 9 2 22 -4 29 -14 6 -11 20 -19 31
-19 11 0 20 -5 20 -10 0 -6 11 -16 25 -22 14 -6 25 -17 25 -23 0 -7 7 -18 15
-25 24 -20 18 -46 -17 -79 -28 -26 -38 -30 -66 -25 -19 4 -38 1 -47 -6 -8 -7
-24 -10 -35 -7 -11 3 -38 1 -60 -4 -32 -7 -46 -6 -67 8 -20 13 -28 14 -31 5
-7 -22 -72 -43 -110 -36 -23 5 -37 2 -42 -6 -7 -11 -15 -10 -43 3 -36 17 -54
35 -72 71 -6 11 -22 23 -35 26 -20 4 -25 11 -24 35 3 118 4 123 23 128 19 4
38 78 25 98 -3 5 0 17 7 25 13 16 52 12 127 -12z"/>
<path d="M9674 7361 c-24 -15 -33 -28 -38 -61 -4 -24 -2 -47 3 -54 7 -8 6 -25
-3 -51 -8 -22 -12 -54 -9 -72 3 -18 1 -39 -6 -46 -13 -16 -17 -82 -7 -114 4
-12 2 -24 -3 -28 -6 -3 -8 -18 -5 -33 3 -15 1 -51 -4 -80 -9 -52 -6 -62 15
-41 8 8 17 7 34 -4 20 -15 25 -15 53 0 49 24 76 54 76 83 0 15 9 35 20 45 15
14 17 22 9 37 -9 16 -7 26 11 50 19 26 20 35 12 103 -5 51 -5 78 2 86 8 7 3
17 -17 33 -16 13 -37 36 -47 52 -12 17 -34 33 -56 39 -46 13 -55 32 -17 37 16
2 28 9 28 17 0 22 -17 23 -51 2z"/>
<path d="M5365 5231 c-16 -4 -47 -15 -67 -24 -21 -9 -50 -17 -65 -17 -20 0
-35 -10 -52 -33 -27 -36 -83 -60 -119 -50 -16 4 -22 1 -22 -10 0 -9 -9 -19
-20 -22 -11 -3 -20 -12 -20 -20 0 -7 -9 -15 -20 -18 -11 -3 -24 -17 -30 -31
-5 -14 -16 -26 -25 -26 -8 0 -15 -5 -15 -12 0 -6 -11 -26 -25 -44 -14 -18 -25
-38 -25 -43 0 -6 -16 -19 -35 -28 -19 -9 -35 -21 -35 -27 0 -5 -11 -22 -25
-36 -22 -23 -24 -29 -13 -58 11 -29 10 -34 -15 -60 -33 -34 -33 -43 -4 -68 34
-29 61 -42 103 -50 22 -3 45 -12 53 -18 8 -6 30 -12 50 -14 20 -1 52 -3 71 -5
19 -1 40 -6 47 -10 7 -4 22 -1 35 7 21 13 28 12 74 -7 28 -12 58 -28 67 -35
17 -15 97 -8 97 8 0 5 15 4 32 -1 48 -13 58 -11 58 11 0 12 7 32 16 45 13 19
14 28 5 39 -8 10 -9 26 -2 57 7 29 6 47 -1 56 -5 7 -7 21 -3 30 4 10 8 50 10
90 3 53 0 75 -11 84 -18 15 -18 34 2 64 15 23 15 25 0 31 -19 7 -21 37 -3 53
16 13 14 149 -3 180 -11 22 -16 23 -65 12z"/>
<path d="M13497 1468 c-9 -24 11 -55 65 -99 29 -24 55 -46 58 -50 12 -15 50
-16 62 -2 10 13 9 18 -7 32 -11 9 -32 35 -48 58 -35 55 -117 93 -130 61z"/>
</g>
</svg>
